<?xml version="1.0" encoding="UTF-8" standalone="no"?>
<svg
   xmlns:dc="http://purl.org/dc/elements/1.1/"
   xmlns:cc="http://creativecommons.org/ns#"
   xmlns:rdf="http://www.w3.org/1999/02/22-rdf-syntax-ns#"
   xmlns:svg="http://www.w3.org/2000/svg"
   xmlns="http://www.w3.org/2000/svg"
   xmlns:sodipodi="http://sodipodi.sourceforge.net/DTD/sodipodi-0.dtd"
   xmlns:inkscape="http://www.inkscape.org/namespaces/inkscape"
   height="55"
   viewBox="0 0 60 55"
   width="60"
   version="1.1"
   id="svg81"
   sodipodi:docname="coworking_tiny.svg"
   inkscape:version="0.92.3 (2405546, 2018-03-11)">
  <metadata
     id="metadata87">
    <rdf:RDF>
      <cc:Work
         rdf:about="">
        <dc:format>image/svg+xml</dc:format>
        <dc:type
           rdf:resource="http://purl.org/dc/dcmitype/StillImage" />
        <dc:title></dc:title>
      </cc:Work>
    </rdf:RDF>
  </metadata>
  <defs
     id="defs85" />
  <sodipodi:namedview
     pagecolor="#ffffff"
     bordercolor="#666666"
     borderopacity="1"
     objecttolerance="10"
     gridtolerance="10"
     guidetolerance="10"
     inkscape:pageopacity="0"
     inkscape:pageshadow="2"
     inkscape:window-width="1366"
     inkscape:window-height="719"
     id="namedview83"
     showgrid="false"
     inkscape:zoom="0.4609375"
     inkscape:cx="240"
     inkscape:cy="224"
     inkscape:window-x="0"
     inkscape:window-y="25"
     inkscape:window-maximized="1"
     inkscape:current-layer="svg81" />
  <g
     id="filled_outline"
     data-name="filled outline"
     transform="matrix(0.125,0,0,0.125,-2,-5)">
    <path
       d="m 480,480 a 8,8 0 0 1 -8,-8 v -88 a 8,8 0 0 1 16,0 v 88 a 8,8 0 0 1 -8,8 z"
       id="path2"
       inkscape:connector-curvature="0"
       style="fill:#a98e72" />
    <path
       d="m 240,272 -24.5,12.251 a 16,16 0 0 0 -8.684,12.048 L 200,344 h 112 l -6.814,-47.7 a 16,16 0 0 0 -8.684,-12.048 L 272,272 Z"
       id="path4"
       inkscape:connector-curvature="0"
       style="fill:#69b9e7" />
    <path
       d="m 32,480 a 8,8 0 0 1 -8,-8 v -72 a 8,8 0 0 1 16,0 v 72 a 8,8 0 0 1 -8,8 z"
       id="path6"
       inkscape:connector-curvature="0"
       style="fill:#a98e72" />
    <path
       d="m 120,376 h 32 v 96 h -32 z"
       id="path8"
       inkscape:connector-curvature="0"
       style="fill:#8e7760" />
    <path
       d="m 360,376 h 32 v 96 h -32 z"
       id="path10"
       inkscape:connector-curvature="0"
       style="fill:#8e7760" />
    <path
       d="m 120,376 h 32 v 16 h -32 z"
       id="path12"
       inkscape:connector-curvature="0"
       style="fill:#746250" />
    <path
       d="m 360,376 h 32 v 16 h -32 z"
       id="path14"
       inkscape:connector-curvature="0"
       style="fill:#746250" />
    <path
       d="m 232,304 h 48 v 40 h -48 z"
       id="path16"
       inkscape:connector-curvature="0"
       style="fill:#cdcdcd" />
    <path
       d="m 456,360 -64,40 40,72 h 16 l -16,-64 56,-24 v -24 z"
       id="path18"
       inkscape:connector-curvature="0"
       style="fill:#a8e6c7" />
    <path
       d="m 392,352 h -40 a 8,8 0 0 1 -7.891,-6.684 l -8,-48 a 8,8 0 0 1 15.782,-2.632 L 358.777,336 H 392 a 8,8 0 0 1 0,16 z"
       id="path20"
       inkscape:connector-curvature="0"
       style="fill:#d9d9d9" />
    <path
       d="m 120,352 h 40 a 8,8 0 0 0 7.891,-6.684 l 8,-48 A 8,8 0 1 0 160.11,294.684 L 153.222,336 H 120 a 8,8 0 0 0 0,16 z"
       id="path22"
       inkscape:connector-curvature="0"
       style="fill:#d9d9d9" />
    <path
       d="m 56,368 40,24 24,80 H 88 L 72,416 24,400 v -32 z"
       id="path24"
       inkscape:connector-curvature="0"
       style="fill:#bef5fa" />
    <path
       d="M 46.28,290.168 96,320 h 32 v 24 H 88 L 56,328 Z"
       id="path26"
       inkscape:connector-curvature="0"
       style="fill:#bef5fa" />
    <path
       d="m 272,472 h -32 l -8,-64 -11.314,-11.314 A 16,16 0 0 1 216,385.373 V 376 h 80 v 9.373 a 16,16 0 0 1 -4.686,11.313 L 280,408 Z"
       id="path28"
       inkscape:connector-curvature="0"
       style="fill:#69b9e7" />
    <path
       d="m 368,48 h -80 a 16,16 0 0 0 -16,16 v 48 a 16,16 0 0 0 16,16 v 32 l 48,-32 h 32 a 16,16 0 0 0 16,-16 V 64 A 16,16 0 0 0 368,48 Z"
       id="path30"
       inkscape:connector-curvature="0"
       style="fill:#fdb62f" />
    <path
       d="m 64,152 v 32 l 48,-32 h 40 a 16,16 0 0 0 16,-16 V 88 A 16,16 0 0 0 152,72 H 56 A 16,16 0 0 0 40,88 v 48 a 16,16 0 0 0 16,16 z"
       id="path32"
       inkscape:connector-curvature="0"
       style="fill:#fcd795" />
    <path
       d="m 344,80 h 80 a 16,16 0 0 1 16,16 v 48 a 16,16 0 0 1 -16,16 v 32 L 376,160 H 344 A 16,16 0 0 1 328,144 V 96 a 16,16 0 0 1 16,-16 z"
       id="path34"
       inkscape:connector-curvature="0"
       style="fill:#fdb62f" />
    <path
       d="m 344,80 a 16,16 0 0 0 -16,16 v 37.333 L 336,128 h 32 a 16,16 0 0 0 16,-16 V 80 Z"
       id="path36"
       inkscape:connector-curvature="0"
       style="fill:#ec9e15" />
    <g
       id="g44"
       style="fill:#fdb62f">
      <path
         d="m 64,104 h 16 v 16 H 64 Z"
         id="path38"
         inkscape:connector-curvature="0" />
      <path
         d="m 96,104 h 16 v 16 H 96 Z"
         id="path40"
         inkscape:connector-curvature="0" />
      <path
         d="m 128,104 h 16 v 16 h -16 z"
         id="path42"
         inkscape:connector-curvature="0" />
    </g>
    <path
       d="m 16,464 h 480 v 16 H 16 Z"
       id="path46"
       inkscape:connector-curvature="0"
       style="fill:#746250" />
    <circle
       cx="256"
       cy="224"
       r="24"
       id="circle48"
       style="fill:#69b9e7" />
    <circle
       cx="464"
       cy="240"
       r="24"
       id="circle50"
       style="fill:#a8e6c7" />
    <circle
       cx="48"
       cy="240"
       r="24"
       id="circle52"
       style="fill:#bef5fa" />
    <path
       d="m 40,288 a 16,16 0 0 0 -16,16 v 64 H 56 V 304 A 16,16 0 0 0 40,288 Z"
       id="path54"
       inkscape:connector-curvature="0"
       style="fill:#bef5fa" />
    <path
       d="m 472,288 a 16,16 0 0 1 16,16 v 56 h -32 v -56 a 16,16 0 0 1 16,-16 z"
       id="path56"
       inkscape:connector-curvature="0"
       style="fill:#a8e6c7" />
    <path
       d="M 464,291.2 416,320 h -32 v 24 h 40 l 32,-16 z"
       id="path58"
       inkscape:connector-curvature="0"
       style="fill:#a8e6c7" />
    <path
       d="m 112,344 h 288 v 32 H 112 Z"
       id="path60"
       inkscape:connector-curvature="0"
       style="fill:#a98e72" />
    <path
       d="m 472,280 c -10.285,0 -18.285,6.957 -21.023,9.688 L 413.785,312 H 384 a 8,8 0 0 0 -8,8 v 16 h -17.223 l -6.886,-41.316 a 8,8 0 0 0 -15.782,2.632 L 342.557,336 h -23.62 l -5.832,-40.836 a 24,24 0 0 0 -13.027,-18.07 l -24.5,-12.25 A 8,8 0 0 0 272,264 h -32 a 8,8 0 0 0 -3.578,0.844 l -24.5,12.25 A 24,24 0 0 0 198.9,295.168 L 193.063,336 h -23.62 l 6.448,-38.684 a 8,8 0 1 0 -15.782,-2.632 L 153.223,336 H 136 v -16 a 8,8 0 0 0 -8,-8 H 98.215 L 61.023,289.688 C 58.285,286.957 50.285,280 40,280 a 24.027,24.027 0 0 0 -24,24 v 96 a 8,8 0 0 0 5.469,7.59 L 24,408.434 V 464 h -8 v 16 h 480 v -16 h -8 v -71.3 l 3.152,-1.351 A 8,8 0 0 0 496,384 V 304 A 24.027,24.027 0 0 0 472,280 Z M 400,430.873 418.4,464 H 400 Z M 400,352 h 24 a 8,8 0 0 0 3.578,-0.844 L 448,340.945 v 14.621 l -48,30 z M 214.73,297.438 a 8.014,8.014 0 0 1 4.348,-6.032 L 241.887,280 h 28.226 l 22.813,11.406 a 8.018,8.018 0 0 1 4.344,6.028 L 302.777,336 H 288 v -32 a 8,8 0 0 0 -8,-8 h -48 a 8,8 0 0 0 -8,8 v 32 H 209.223 Z M 272,336 h -32 v -24 h 32 z m 112,16 v 16 H 128 v -16 z m -80,33.371 V 384 h 48 v 80 h -70.938 l 6.536,-52.285 9.371,-9.371 A 23.841,23.841 0 0 0 304,385.371 Z m -88.969,16.973 9.371,9.371 6.536,52.285 H 160 v -80 h 48 v 1.371 a 23.841,23.841 0 0 0 7.031,16.973 z M 112,417.49 103.664,389.7 a 8.006,8.006 0 0 0 -3.547,-4.562 L 64,363.469 v -22.524 l 20.422,10.211 A 8,8 0 0 0 88,352 h 24 z M 40,413.766 65.469,422.254 77.4,464 H 40 Z M 94.035,464 79.691,413.8 a 8,8 0 0 0 -5.16,-5.391 L 32,394.234 V 304 a 8.011,8.011 0 0 1 8,-8 c 4.188,0 8.793,3.98 10.039,5.336 a 7.912,7.912 0 0 0 1.844,1.523 l 40,24 A 8.014,8.014 0 0 0 96,328 h 24 v 8 H 89.887 L 59.578,320.844 A 8,8 0 0 0 48,328 v 40 a 8,8 0 0 0 3.883,6.859 L 89.227,397.266 109.246,464 Z M 128,464 v -80 h 16 v 80 z m 119.062,0 -7.125,-56.992 a 7.98,7.98 0 0 0 -2.281,-4.664 L 226.344,391.031 A 7.951,7.951 0 0 1 224,385.371 V 384 h 64 v 1.371 a 7.951,7.951 0 0 1 -2.344,5.66 l -11.312,11.313 a 7.987,7.987 0 0 0 -2.282,4.664 L 264.937,464 Z M 368,464 v -80 h 16 v 80 z m 68.707,0 -34.023,-61.242 57.554,-35.973 A 8.006,8.006 0 0 0 464,360 v -32 a 8,8 0 0 0 -11.578,-7.156 L 422.113,336 H 392 v -8 h 24 a 8.014,8.014 0 0 0 4.117,-1.141 l 40,-24 a 7.912,7.912 0 0 0 1.844,-1.523 C 462.969,300.211 467.633,296 472,296 a 8.011,8.011 0 0 1 8,8 v 74.727 l -51.152,21.921 a 8,8 0 0 0 -4.61,9.293 L 437.754,464 Z M 472,464 H 454.247 L 441.414,412.668 472,399.56 Z"
       id="path62"
       inkscape:connector-curvature="0" />
    <path
       d="M 280,134.629 V 160 a 8,8 0 0 0 12.437,6.656 L 320.4,148.011 A 23.986,23.986 0 0 0 344,168 h 29.578 l 45.984,30.656 A 8,8 0 0 0 432,192 V 166.629 A 24.041,24.041 0 0 0 448,144 V 96 A 24.027,24.027 0 0 0 424,72 H 392 V 64 A 24.027,24.027 0 0 0 368,40 h -80 a 24.027,24.027 0 0 0 -24,24 v 48 a 24.04,24.04 0 0 0 16,22.629 z M 424,88 a 8.011,8.011 0 0 1 8,8 v 48 a 8.011,8.011 0 0 1 -8,8 8,8 0 0 0 -8,8 v 17.051 L 380.437,153.344 A 8.005,8.005 0 0 0 376,152 h -32 a 8.011,8.011 0 0 1 -8,-8 v -6.385 L 338.422,136 H 368 a 24.027,24.027 0 0 0 24,-24 V 88 Z m -88,32 V 96 a 8.011,8.011 0 0 1 8,-8 h 32 v 24 a 8.011,8.011 0 0 1 -8,8 z M 280,64 a 8.011,8.011 0 0 1 8,-8 h 80 a 8.011,8.011 0 0 1 8,8 v 8 h -32 a 24.027,24.027 0 0 0 -24,24 v 33.052 l -24,16 V 128 a 8,8 0 0 0 -8,-8 8.011,8.011 0 0 1 -8,-8 z"
       id="path64"
       inkscape:connector-curvature="0" />
    <path
       d="m 56,160 v 24 a 8,8 0 0 0 12.438,6.656 L 114.422,160 H 152 a 24.027,24.027 0 0 0 24,-24 V 88 A 24.027,24.027 0 0 0 152,64 H 56 A 24.027,24.027 0 0 0 32,88 v 48 a 24.027,24.027 0 0 0 24,24 z M 48,88 a 8.011,8.011 0 0 1 8,-8 h 96 a 8.011,8.011 0 0 1 8,8 v 48 a 8.011,8.011 0 0 1 -8,8 h -40 a 8.011,8.011 0 0 0 -4.438,1.344 L 72,169.051 V 152 a 8,8 0 0 0 -8,-8 h -8 a 8.011,8.011 0 0 1 -8,-8 z"
       id="path66"
       inkscape:connector-curvature="0" />
    <path
       d="m 64,104 h 16 v 16 H 64 Z"
       id="path68"
       inkscape:connector-curvature="0" />
    <path
       d="m 96,104 h 16 v 16 H 96 Z"
       id="path70"
       inkscape:connector-curvature="0" />
    <path
       d="m 128,104 h 16 v 16 h -16 z"
       id="path72"
       inkscape:connector-curvature="0" />
    <path
       d="m 256,256 a 32,32 0 1 0 -32,-32 32.036,32.036 0 0 0 32,32 z m 0,-48 a 16,16 0 1 1 -16,16 16.016,16.016 0 0 1 16,-16 z"
       id="path74"
       inkscape:connector-curvature="0" />
    <path
       d="m 432,240 a 32,32 0 1 0 32,-32 32.036,32.036 0 0 0 -32,32 z m 32,-16 a 16,16 0 1 1 -16,16 16.016,16.016 0 0 1 16,-16 z"
       id="path76"
       inkscape:connector-curvature="0" />
    <path
       d="m 48,272 a 32,32 0 1 0 -32,-32 32.036,32.036 0 0 0 32,32 z m 0,-48 a 16,16 0 1 1 -16,16 16.016,16.016 0 0 1 16,-16 z"
       id="path78"
       inkscape:connector-curvature="0" />
  </g>
</svg>
