<?xml version="1.0" encoding="UTF-8" standalone="no"?>
<svg
   xmlns:dc="http://purl.org/dc/elements/1.1/"
   xmlns:cc="http://creativecommons.org/ns#"
   xmlns:rdf="http://www.w3.org/1999/02/22-rdf-syntax-ns#"
   xmlns:svg="http://www.w3.org/2000/svg"
   xmlns="http://www.w3.org/2000/svg"
   xmlns:sodipodi="http://sodipodi.sourceforge.net/DTD/sodipodi-0.dtd"
   xmlns:inkscape="http://www.inkscape.org/namespaces/inkscape"
   id="_x33_0"
   enable-background="new 0 0 64 64"
   height="60"
   viewBox="0 0 7.5 7.5"
   width="60"
   version="1.1"
   sodipodi:docname="fair_tiny.svg"
   inkscape:version="0.92.3 (2405546, 2018-03-11)">
  <metadata
     id="metadata14">
    <rdf:RDF>
      <cc:Work
         rdf:about="">
        <dc:format>image/svg+xml</dc:format>
        <dc:type
           rdf:resource="http://purl.org/dc/dcmitype/StillImage" />
        <dc:title></dc:title>
      </cc:Work>
    </rdf:RDF>
  </metadata>
  <defs
     id="defs12" />
  <sodipodi:namedview
     pagecolor="#ffffff"
     bordercolor="#666666"
     borderopacity="1"
     objecttolerance="10"
     gridtolerance="10"
     guidetolerance="10"
     inkscape:pageopacity="0"
     inkscape:pageshadow="2"
     inkscape:window-width="1366"
     inkscape:window-height="719"
     id="namedview10"
     showgrid="false"
     inkscape:zoom="0.4609375"
     inkscape:cx="248"
     inkscape:cy="248"
     inkscape:window-x="0"
     inkscape:window-y="25"
     inkscape:window-maximized="1"
     inkscape:current-layer="_x33_0" />
  <linearGradient
     id="SVGID_1_"
     gradientUnits="userSpaceOnUse"
     x1="32"
     x2="32"
     y1="63"
     y2="1"
     gradientTransform="matrix(0.12096774,0,0,0.12096774,-0.12096774,-0.120968)">
    <stop
       offset="0"
       stop-color="#9f2fff"
       id="stop2" />
    <stop
       offset="1"
       stop-color="#0bb1d3"
       id="stop4" />
  </linearGradient>
  <path
     d="M 4.1066129,2.578548 3.8772581,2.501978 C 3.9649601,2.238873 4.1744758,2.029357 4.4375806,1.941655 L 4.5141536,2.17101 C 4.3227823,2.235 4.1704839,2.387298 4.1066129,2.578548 Z M 7.5,1.209677 V 1.451613 C 7.5,1.58504 7.3914919,1.693548 7.2580645,1.693548 H 6.6070161 c -0.014516,0.0127 -0.028669,0.02589 -0.044637,0.0369 L 7.5,3.722903 v 0.148065 c 0,0.667016 -0.5426613,1.209677 -1.2096774,1.209677 -0.6670161,0 -1.2096774,-0.542661 -1.2096774,-1.209677 V 3.722903 l 0.9376209,-1.99258 c -0.015968,-0.01089 -0.030121,-0.02419 -0.044637,-0.0369 H 5.0806452 v 0.241936 c 0,0.368952 -0.1086291,0.735 -0.3073791,1.045282 0.040282,0.04343 0.065444,0.100887 0.065444,0.164516 v 1.354234 l 0.3658064,0.365807 -0.176129,0.176129 c -0.066653,0.06677 -0.086129,0.166572 -0.049476,0.254395 0.037984,0.09157 0.1219355,0.147822 0.2160484,0.147822 H 5.4435486 V 6.169351 H 5.1949597 c -0.094113,0 -0.1781855,0.05625 -0.2142339,0.143226 -0.038468,0.09242 -0.018992,0.192217 0.047661,0.258992 L 5.2045161,6.747702 4.691129,7.261089 4.515,7.08496 C 4.448347,7.01831 4.3486694,6.99883 4.2606048,7.03548 4.1691528,7.07334 4.1129032,7.157294 4.1129032,7.251407 V 7.5 H 3.3870968 V 7.251411 c 0,-0.09411 -0.05625,-0.178185 -0.1432258,-0.214234 C 3.151089,6.998467 3.0515323,7.018067 2.984879,7.084837 L 2.80875,7.260968 2.2953629,6.747581 2.4714919,6.571452 C 2.5381449,6.504682 2.5576209,6.404879 2.5209679,6.317056 2.4831049,6.225606 2.3991534,6.169355 2.3050405,6.169355 H 2.0564516 V 5.443548 h 0.2485887 c 0.094113,0 0.1781855,-0.05625 0.2142339,-0.143225 0.038468,-0.09242 0.018992,-0.192218 -0.047661,-0.258992 L 2.2954842,4.865202 2.6612906,4.499395 V 3.145161 c 0,-0.06363 0.025161,-0.121088 0.065444,-0.164395 C 2.5279846,2.670484 2.4193555,2.304435 2.4193555,1.935484 V 1.693548 H 1.526371 c -0.014516,0.0127 -0.028669,0.02589 -0.044637,0.0369 l 0.9376209,1.992459 v 0.148065 c 0,0.667016 -0.5426613,1.209677 -1.2096774,1.209677 C 0.5426613,5.080645 0,4.537984 0,3.870968 V 3.722903 L 0.937621,1.730323 C 0.921653,1.719433 0.9075,1.706133 0.892984,1.693423 H 0.2419355 C 0.1085081,1.693427 0,1.584919 0,1.451492 V 1.209556 C 0,1.076129 0.1085081,0.967621 0.2419355,0.967621 h 0.6510484 c 0.08504,-0.07427 0.195,-0.120847 0.3166935,-0.120847 0.1216936,0 0.2316532,0.04657 0.3166936,0.120968 H 2.4866129 C 2.5705649,0.82379 2.7249194,0.725806 2.9032258,0.725806 V 0.362903 C 2.9032258,0.162823 3.0660484,0 3.266129,0 3.359395,0 3.4437097,0.03641 3.5080645,0.09436 3.5724194,0.036411 3.6567339,0 3.75,0 3.843266,0 3.9275806,0.03641 3.9919355,0.09436 4.0562903,0.036411 4.1406048,0 4.233871,0 c 0.1672984,0 0.3071371,0.114315 0.3488709,0.268548 0.041855,-0.01681 0.087218,-0.02661 0.135,-0.02661 0.2000807,0 0.3629033,0.162823 0.3629033,0.362904 v 0.241935 c 0,0.04258 -0.00871,0.08298 -0.022258,0.120968 H 5.973629 c 0.08504,-0.0744 0.195,-0.120968 0.3166936,-0.120968 0.1216935,0 0.2316532,0.04657 0.3166935,0.120968 H 7.2580645 C 7.3914919,0.967742 7.5,1.07625 7.5,1.209677 Z M 0.9677419,1.330645 c 0,0.133428 0.1085081,0.241936 0.2419355,0.241936 0.1334274,0 0.2419355,-0.108508 0.2419355,-0.241936 0,-0.133427 -0.1085081,-0.241935 -0.2419355,-0.241935 -0.1334274,0 -0.2419355,0.108508 -0.2419355,0.241935 z M 0.2419355,1.451613 h 0.5010484 c -0.010161,-0.03895 -0.017177,-0.07899 -0.017177,-0.120968 0,-0.04198 0.00702,-0.08202 0.017177,-0.120968 H 0.2419355 Z M 2.1774194,3.870968 H 0.2419355 c 0,0.533588 0.4341532,0.967742 0.9677419,0.967742 0.5335887,0 0.967742,-0.434154 0.967742,-0.967742 z M 1.2517742,1.810282 c -0.014032,0.0012 -0.027702,0.0042 -0.042097,0.0042 -0.014395,0 -0.028064,-0.003 -0.042097,-0.0042 l -0.8559677,1.81875 h 1.796129 z M 2.4193548,1.451613 V 1.209677 H 1.676371 c 0.010161,0.03895 0.017177,0.07899 0.017177,0.120968 0,0.04198 -0.00702,0.08202 -0.017177,0.120968 z M 6.0483871,1.330645 c 0,0.133428 0.1085081,0.241936 0.2419355,0.241936 0.1334274,0 0.2419355,-0.108508 0.2419355,-0.241936 0,-0.133427 -0.1085081,-0.241935 -0.2419355,-0.241935 -0.1334274,0 -0.2419355,0.108508 -0.2419355,0.241935 z m -0.2419355,0 c 0,-0.04198 0.00702,-0.08202 0.017177,-0.120968 H 4.3006452 C 4.2563712,1.307057 4.1871774,1.391129 4.0982661,1.451613 H 5.823629 C 5.813468,1.412663 5.806452,1.372623 5.8064516,1.330645 Z M 4.5967742,0.604839 v 0.241935 c 0,0.06677 0.054194,0.120968 0.1209677,0.120968 0.066774,0 0.1209678,-0.05419 0.1209678,-0.120968 V 0.604839 c 0,-0.06677 -0.054194,-0.120968 -0.1209678,-0.120968 -0.066774,0 -0.1209677,0.05419 -0.1209677,0.120968 z M 4.1129032,0.362903 v 0.362903 c 0.1086291,0 0.1997178,0.07246 0.2302016,0.171291 0.00714,-0.01536 0.011734,-0.03218 0.011734,-0.05032 V 0.362906 c 0,-0.06677 -0.054194,-0.120968 -0.1209677,-0.120968 -0.066774,0 -0.1209678,0.05419 -0.1209678,0.120968 z m -0.4838709,0 V 0.725806 H 3.8709677 V 0.362903 c 0,-0.06677 -0.054193,-0.120968 -0.1209677,-0.120968 -0.066774,0 -0.1209677,0.05419 -0.1209677,0.120968 z M 3.1451613,0.725806 H 3.3870968 V 0.362903 c 0,-0.06677 -0.054194,-0.120968 -0.1209678,-0.120968 -0.066774,0 -0.1209677,0.05419 -0.1209677,0.120968 z M 2.9032258,3.145161 V 4.44629 L 2.985,4.528065 c 0.066774,0.06677 0.1666935,0.08601 0.2542742,0.04935 0.091573,-0.03786 0.1478226,-0.121814 0.1478226,-0.215927 V 4.112899 h 0.7258064 v 0.248589 c 0,0.09411 0.05625,0.178185 0.1432258,0.213992 0.092782,0.03883 0.1923387,0.01911 0.258992,-0.04742 L 4.596774,4.44628 V 3.145151 Z m 1.9541129,1.725242 0.00508,-0.0051 -0.1712904,-0.171291 -0.00508,0.0051 C 4.5495968,4.835565 4.3457661,4.875 4.1674597,4.800726 3.9858871,4.725605 3.8709677,4.553952 3.8709677,4.361492 v -0.0067 H 3.6290323 v 0.0067 c 0,0.19246 -0.1149194,0.364234 -0.292742,0.437661 -0.1826613,0.07621 -0.386129,0.03629 -0.5223387,-0.10004 l -0.00508,-0.0051 -0.1712904,0.171291 0.00508,0.0051 c 0.1363306,0.136331 0.17625,0.33992 0.1017339,0.518468 -0.075242,0.181694 -0.2470162,0.296613 -0.4393549,0.296613 h -0.00665 V 5.92742 h 0.00665 c 0.1923387,0 0.3642339,0.11492 0.4376613,0.292742 0.07621,0.182541 0.03629,0.386008 -0.1000403,0.522339 l -0.00508,0.0051 0.1712904,0.17129 0.00508,-0.0051 C 2.9502823,6.77734 3.153871,6.737541 3.3324194,6.812057 3.5141129,6.887297 3.6290323,7.059074 3.6290323,7.251412 v 0.0067 h 0.2419354 v -0.0067 c 0,-0.192338 0.1149194,-0.364234 0.292742,-0.437661 0.1829032,-0.07633 0.386129,-0.03605 0.5223387,0.10004 l 0.00508,0.0051 0.1712904,-0.17129 -0.00508,-0.0051 C 4.7210081,6.606169 4.6810887,6.402581 4.7556048,6.224032 4.8308468,6.042339 5.002621,5.927419 5.1949597,5.927419 h 0.00665 V 5.685484 h -0.00665 c -0.1923387,0 -0.3642339,-0.114919 -0.4376613,-0.292742 -0.07621,-0.18254 -0.03629,-0.386008 0.1000403,-0.522339 z M 4.8387097,1.693548 H 3.4718952 C 3.573871,1.904395 3.6290323,2.134839 3.6290323,2.371573 v 0.04778 H 3.3870968 v -0.04778 c 0,-0.261291 -0.076694,-0.514476 -0.2216129,-0.731976 L 3.0702823,1.496734 3.8525806,1.30125 C 4.0057258,1.2629 4.1129032,1.125847 4.1129032,0.967742 H 2.9032258 c -0.1334274,0 -0.2419355,0.108508 -0.2419355,0.241935 v 0.725807 c 0,0.344395 0.10875,0.685161 0.3053226,0.967742 H 4.5332661 C 4.7299597,2.620645 4.8387097,2.279879 4.8387097,1.935484 Z m 2.4193548,2.17742 H 5.3225806 c 0,0.533588 0.4341533,0.967742 0.967742,0.967742 0.5335887,0 0.9677419,-0.434154 0.9677419,-0.967742 z M 6.3324194,1.810282 c -0.014032,0.0012 -0.027702,0.0042 -0.042097,0.0042 -0.014395,0 -0.028064,-0.003 -0.042097,-0.0042 l -0.8559677,1.81875 h 1.796129 z M 7.2580645,1.209677 H 6.7570161 c 0.010161,0.03895 0.017177,0.07899 0.017177,0.120968 0,0.04198 -0.00702,0.08202 -0.017177,0.120968 H 7.2580645 Z M 4.5967742,5.806452 c 0,0.466814 -0.3799597,0.846774 -0.8467742,0.846774 -0.4668145,0 -0.8467742,-0.37996 -0.8467742,-0.846774 0,-0.466815 0.3799597,-0.846775 0.8467742,-0.846775 0.4668145,0 0.8467742,0.37996 0.8467742,0.846775 z m -0.2419355,0 c 0,-0.333508 -0.2713306,-0.604839 -0.6048387,-0.604839 -0.3335081,0 -0.6048387,0.271331 -0.6048387,0.604839 0,0.333508 0.2713306,0.604838 0.6048387,0.604838 0.3335081,0 0.6048387,-0.27133 0.6048387,-0.604838 z"
     id="path7"
     style="fill:url(#SVGID_1_);stroke-width:0.12096774"
     inkscape:connector-curvature="0" />
</svg>
