<?xml version="1.0" encoding="iso-8859-1"?>
<!-- Generator: Adobe Illustrator 19.0.0, SVG Export Plug-In . SVG Version: 6.00 Build 0)  -->
<svg version="1.1" id="Capa_1" xmlns="http://www.w3.org/2000/svg" xmlns:xlink="http://www.w3.org/1999/xlink" x="0px" y="0px"
	 viewBox="0 0 512.001 512.001" style="enable-background:new 0 0 512.001 512.001;" xml:space="preserve">
<g>
	<g>
		<path d="M501.998,437.999h-44v-80.843c0-5.522-4.477-10-10-10c-5.523,0-10,4.478-10,10v80.843H217.984c-5.523,0-10,4.478-10,10
			c0,0.365,0.014,1.69,0.014,2c0,23.159-18.841,42-42,42s-42-18.841-42-42V321c0-5.522-4.477-10-10-10s-10,4.478-10,10v128.999
			c0,34.187,27.813,62,62,62h282c35.29,0,64-28.71,64-64C511.998,442.477,507.521,437.999,501.998,437.999z M447.998,491.999
			H211.553c8.491-9.203,14.224-20.973,15.911-34h263.388C486.313,477.46,468.822,491.999,447.998,491.999z"/>
	</g>
</g>
<g>
	<g>
		<path d="M121.071,270.93c-1.86-1.86-4.44-2.93-7.07-2.93c-2.63,0-5.21,1.069-7.07,2.93c-1.86,1.86-2.93,4.44-2.93,7.07
			c0,2.63,1.07,5.21,2.93,7.069c1.86,1.861,4.44,2.931,7.07,2.931c2.63,0,5.21-1.07,7.07-2.931c1.86-1.859,2.93-4.439,2.93-7.069
			C124.001,275.37,122.931,272.79,121.071,270.93z"/>
	</g>
</g>
<g>
	<g>
		<path d="M511.368,252.667c0.003-0.001,0.005-0.003,0.008-0.004l-41.042-110.638h12.664c5.523,0,10-4.478,10-10
			c0-5.522-4.477-10-10-10h-25V64.002c0-35.29-28.71-63.999-64-63.999H70.432c-0.824,0-6.393,0-8.433,0c-34.187,0-62,27.813-62,62
			c0,5.522,4.477,10,10,10h93.999v163.999c0,5.522,4.477,10,10,10s10-4.478,10-10c0,0,0-173.661,0-173.999
			c0-16.191-6.245-30.946-16.445-42h286.445c24.262,0,44,19.738,44,44v58.023h-79.694c-3.609-10.781-13.796-18.575-25.776-18.575
			h-1.057c-11.98,0-22.167,7.794-25.776,18.575H181.003c-5.523,0-10,4.478-10,10c0,5.522,4.477,10,10,10h12.667l-41.042,110.638
			c0.003,0.001,0.005,0.003,0.008,0.004c-0.402,1.083-0.632,2.25-0.632,3.473v1.374c0,30.144,24.524,54.668,54.668,54.668h2.748
			c30.144,0,54.668-24.524,54.668-54.668v-1.374c0-1.225-0.231-2.393-0.634-3.477c0.003,0,0.006,0,0.009,0L222.42,142.024h81.874
			v215.163h-9.773c-5.523,0-10,4.478-10,10c0,5.522,4.477,10,10,10h74.961c5.523,0,10-4.478,10-10c0-5.522-4.477-10-10-10h-9.773
			V228.334c0-5.522-4.477-10-10-10c-5.523,0-10,4.478-10,10v128.854h-15.416V157.896c2.288,0.627,4.693,0.969,7.178,0.969h1.057
			c11.328,0,21.055-6.968,25.132-16.841h83.819c0.027,0.023,0.051,0.049,0.078,0.071l-41.016,110.566
			c0.003,0.002,0.005,0.004,0.007,0.006c-0.402,1.083-0.632,2.249-0.632,3.472v1.374c0,30.144,24.524,54.668,54.668,54.668h2.748
			c30.144,0,54.668-24.524,54.668-54.668v-1.374C512,254.917,511.77,253.751,511.368,252.667z M21.213,52.002
			c4.499-18.345,21.074-32,40.787-32s36.288,13.655,40.787,32H21.213z M209.418,292.182h-2.748
			c-16.14,0-29.738-11.085-33.582-26.042H243C239.156,281.097,225.558,292.182,209.418,292.182z M239.711,246.141h-63.333
			l31.666-85.363L239.711,246.141z M339.708,131.686c0,3.959-3.221,7.18-7.18,7.18h-1.057c-3.959,0-7.18-3.221-7.18-7.18v-1.057
			c0-3.959,3.221-7.18,7.18-7.18h1.057c3.959,0,7.18,3.221,7.18,7.18V131.686z M455.959,160.777l31.666,85.363h-63.333
			L455.959,160.777z M457.332,292.182h-2.748c-16.14,0-29.738-11.085-33.582-26.042h69.911
			C487.071,281.097,473.472,292.182,457.332,292.182z"/>
	</g>
</g>
<g>
	<g>
		<path d="M356.779,181.931c-1.86-1.86-4.44-2.93-7.07-2.93c-2.63,0-5.21,1.07-7.07,2.93c-1.86,1.86-2.93,4.44-2.93,7.07
			c0,2.63,1.07,5.21,2.93,7.069c1.86,1.86,4.44,2.931,7.07,2.931c2.63,0,5.21-1.07,7.07-2.931c1.86-1.859,2.93-4.439,2.93-7.069
			C359.709,186.371,358.639,183.791,356.779,181.931z"/>
	</g>
</g>
<g>
</g>
<g>
</g>
<g>
</g>
<g>
</g>
<g>
</g>
<g>
</g>
<g>
</g>
<g>
</g>
<g>
</g>
<g>
</g>
<g>
</g>
<g>
</g>
<g>
</g>
<g>
</g>
<g>
</g>
</svg>
