<?xml version="1.0" encoding="UTF-8" standalone="no"?>
<!-- Generator: Adobe Illustrator 19.0.0, SVG Export Plug-In . SVG Version: 6.00 Build 0)  -->

<svg
   xmlns:dc="http://purl.org/dc/elements/1.1/"
   xmlns:cc="http://creativecommons.org/ns#"
   xmlns:rdf="http://www.w3.org/1999/02/22-rdf-syntax-ns#"
   xmlns:svg="http://www.w3.org/2000/svg"
   xmlns="http://www.w3.org/2000/svg"
   xmlns:sodipodi="http://sodipodi.sourceforge.net/DTD/sodipodi-0.dtd"
   xmlns:inkscape="http://www.inkscape.org/namespaces/inkscape"
   version="1.1"
   id="Capa_1"
   x="0px"
   y="0px"
   viewBox="0 0 125.00001 124.99879"
   xml:space="preserve"
   sodipodi:docname="law_small.svg"
   width="125"
   height="124.99878"
   inkscape:version="0.92.4 (unknown)"><metadata
   id="metadata164"><rdf:RDF><cc:Work
       rdf:about=""><dc:format>image/svg+xml</dc:format><dc:type
         rdf:resource="http://purl.org/dc/dcmitype/StillImage" /><dc:title></dc:title></cc:Work></rdf:RDF></metadata><defs
   id="defs162" /><sodipodi:namedview
   pagecolor="#ffffff"
   bordercolor="#666666"
   borderopacity="1"
   objecttolerance="10"
   gridtolerance="10"
   guidetolerance="10"
   inkscape:pageopacity="0"
   inkscape:pageshadow="2"
   inkscape:window-width="1239"
   inkscape:window-height="776"
   id="namedview160"
   showgrid="false"
   inkscape:zoom="0.46093662"
   inkscape:cx="256.00149"
   inkscape:cy="255.99851"
   inkscape:window-x="41"
   inkscape:window-y="24"
   inkscape:window-maximized="1"
   inkscape:current-layer="Capa_1" />


















<g
   id="g2215"
   transform="matrix(0.24414015,0,0,0.24414015,2.4414015e-4,-7.3242045e-4)"
   style="stroke-width:4.09600782"><g
     id="g109"
     style="stroke-width:4.09600782">
	<g
   id="g107"
   style="stroke-width:4.09600782">
		<path
   id="path105"
   d="m 501.998,437.999 h -44 v -80.843 c 0,-5.522 -4.477,-10 -10,-10 -5.523,0 -10,4.478 -10,10 v 80.843 H 217.984 c -5.523,0 -10,4.478 -10,10 0,0.365 0.014,1.69 0.014,2 0,23.159 -18.841,42 -42,42 -23.159,0 -42,-18.841 -42,-42 V 321 c 0,-5.522 -4.477,-10 -10,-10 -5.523,0 -10,4.478 -10,10 v 128.999 c 0,34.187 27.813,62 62,62 h 282 c 35.29,0 64,-28.71 64,-64 0,-5.522 -4.477,-10 -10,-10 z m -54,54 H 211.553 c 8.491,-9.203 14.224,-20.973 15.911,-34 h 263.388 c -4.539,19.461 -22.03,34 -42.854,34 z"
   inkscape:connector-curvature="0"
   style="stroke-width:4.09600782" />
	</g>
</g><g
     id="g115"
     style="stroke-width:4.09600782">
	<g
   id="g113"
   style="stroke-width:4.09600782">
		<path
   id="path111"
   d="m 121.071,270.93 c -1.86,-1.86 -4.44,-2.93 -7.07,-2.93 -2.63,0 -5.21,1.069 -7.07,2.93 -1.86,1.86 -2.93,4.44 -2.93,7.07 0,2.63 1.07,5.21 2.93,7.069 1.86,1.861 4.44,2.931 7.07,2.931 2.63,0 5.21,-1.07 7.07,-2.931 1.86,-1.859 2.93,-4.439 2.93,-7.069 0,-2.63 -1.07,-5.21 -2.93,-7.07 z"
   inkscape:connector-curvature="0"
   style="stroke-width:4.09600782" />
	</g>
</g><g
     id="g121"
     style="stroke-width:4.09600782">
	<g
   id="g119"
   style="stroke-width:4.09600782">
		<path
   id="path117"
   d="m 511.368,252.667 c 0.003,-0.001 0.005,-0.003 0.008,-0.004 L 470.334,142.025 h 12.664 c 5.523,0 10,-4.478 10,-10 0,-5.522 -4.477,-10 -10,-10 h -25 V 64.002 c 0,-35.29 -28.71,-63.999 -64,-63.999 H 70.432 c -0.824,0 -6.393,0 -8.433,0 -34.187,0 -62,27.813 -62,62 0,5.522 4.477,10 10,10 h 93.999 v 163.999 c 0,5.522 4.477,10 10,10 5.523,0 10,-4.478 10,-10 0,0 0,-173.661 0,-173.999 0,-16.191 -6.245,-30.946 -16.445,-42 h 286.445 c 24.262,0 44,19.738 44,44 v 58.023 h -79.694 c -3.609,-10.781 -13.796,-18.575 -25.776,-18.575 h -1.057 c -11.98,0 -22.167,7.794 -25.776,18.575 H 181.003 c -5.523,0 -10,4.478 -10,10 0,5.522 4.477,10 10,10 h 12.667 l -41.042,110.638 c 0.003,0.001 0.005,0.003 0.008,0.004 -0.402,1.083 -0.632,2.25 -0.632,3.473 v 1.374 c 0,30.144 24.524,54.668 54.668,54.668 h 2.748 c 30.144,0 54.668,-24.524 54.668,-54.668 v -1.374 c 0,-1.225 -0.231,-2.393 -0.634,-3.477 0.003,0 0.006,0 0.009,0 L 222.42,142.024 h 81.874 v 215.163 h -9.773 c -5.523,0 -10,4.478 -10,10 0,5.522 4.477,10 10,10 h 74.961 c 5.523,0 10,-4.478 10,-10 0,-5.522 -4.477,-10 -10,-10 h -9.773 V 228.334 c 0,-5.522 -4.477,-10 -10,-10 -5.523,0 -10,4.478 -10,10 V 357.188 H 324.293 V 157.896 c 2.288,0.627 4.693,0.969 7.178,0.969 h 1.057 c 11.328,0 21.055,-6.968 25.132,-16.841 h 83.819 c 0.027,0.023 0.051,0.049 0.078,0.071 l -41.016,110.566 c 0.003,0.002 0.005,0.004 0.007,0.006 -0.402,1.083 -0.632,2.249 -0.632,3.472 v 1.374 c 0,30.144 24.524,54.668 54.668,54.668 h 2.748 c 30.144,0 54.668,-24.524 54.668,-54.668 v -1.374 c 0,-1.222 -0.23,-2.388 -0.632,-3.472 z M 21.213,52.002 c 4.499,-18.345 21.074,-32 40.787,-32 19.713,0 36.288,13.655 40.787,32 z m 188.205,240.18 h -2.748 c -16.14,0 -29.738,-11.085 -33.582,-26.042 H 243 c -3.844,14.957 -17.442,26.042 -33.582,26.042 z m 30.293,-46.041 h -63.333 l 31.666,-85.363 z m 99.997,-114.455 c 0,3.959 -3.221,7.18 -7.18,7.18 h -1.057 c -3.959,0 -7.18,-3.221 -7.18,-7.18 v -1.057 c 0,-3.959 3.221,-7.18 7.18,-7.18 h 1.057 c 3.959,0 7.18,3.221 7.18,7.18 z m 116.251,29.091 31.666,85.363 h -63.333 z m 1.373,131.405 h -2.748 c -16.14,0 -29.738,-11.085 -33.582,-26.042 h 69.911 c -3.842,14.957 -17.441,26.042 -33.581,26.042 z"
   inkscape:connector-curvature="0"
   style="stroke-width:4.09600782" />
	</g>
</g><g
     id="g127"
     style="stroke-width:4.09600782">
	<g
   id="g125"
   style="stroke-width:4.09600782">
		<path
   id="path123"
   d="m 356.779,181.931 c -1.86,-1.86 -4.44,-2.93 -7.07,-2.93 -2.63,0 -5.21,1.07 -7.07,2.93 -1.86,1.86 -2.93,4.44 -2.93,7.07 0,2.63 1.07,5.21 2.93,7.069 1.86,1.86 4.44,2.931 7.07,2.931 2.63,0 5.21,-1.07 7.07,-2.931 1.86,-1.859 2.93,-4.439 2.93,-7.069 0,-2.63 -1.07,-5.21 -2.93,-7.07 z"
   inkscape:connector-curvature="0"
   style="stroke-width:4.09600782" />
	</g>
</g><g
     id="g129"
     style="stroke-width:4.09600782">
</g><g
     id="g131"
     style="stroke-width:4.09600782">
</g><g
     id="g133"
     style="stroke-width:4.09600782">
</g><g
     id="g135"
     style="stroke-width:4.09600782">
</g><g
     id="g137"
     style="stroke-width:4.09600782">
</g><g
     id="g139"
     style="stroke-width:4.09600782">
</g><g
     id="g141"
     style="stroke-width:4.09600782">
</g><g
     id="g143"
     style="stroke-width:4.09600782">
</g><g
     id="g145"
     style="stroke-width:4.09600782">
</g><g
     id="g147"
     style="stroke-width:4.09600782">
</g><g
     id="g149"
     style="stroke-width:4.09600782">
</g><g
     id="g151"
     style="stroke-width:4.09600782">
</g><g
     id="g153"
     style="stroke-width:4.09600782">
</g><g
     id="g155"
     style="stroke-width:4.09600782">
</g><g
     id="g157"
     style="stroke-width:4.09600782">
</g></g>
</svg>