<?xml version="1.0" encoding="UTF-8" standalone="no"?>
<svg
   xmlns:dc="http://purl.org/dc/elements/1.1/"
   xmlns:cc="http://creativecommons.org/ns#"
   xmlns:rdf="http://www.w3.org/1999/02/22-rdf-syntax-ns#"
   xmlns:svg="http://www.w3.org/2000/svg"
   xmlns="http://www.w3.org/2000/svg"
   xmlns:sodipodi="http://sodipodi.sourceforge.net/DTD/sodipodi-0.dtd"
   xmlns:inkscape="http://www.inkscape.org/namespaces/inkscape"
   height="67.5pt"
   viewBox="0 0 67.5 67.5"
   width="67.5pt"
   version="1.1"
   id="svg16"
   sodipodi:docname="meeting_puzzle_color_90x90.svg"
   inkscape:version="0.92.3 (2405546, 2018-03-11)">
  <metadata
     id="metadata22">
    <rdf:RDF>
      <cc:Work
         rdf:about="">
        <dc:format>image/svg+xml</dc:format>
        <dc:type
           rdf:resource="http://purl.org/dc/dcmitype/StillImage" />
        <dc:title></dc:title>
      </cc:Work>
    </rdf:RDF>
  </metadata>
  <defs
     id="defs20" />
  <sodipodi:namedview
     pagecolor="#ffffff"
     bordercolor="#666666"
     borderopacity="1"
     objecttolerance="10"
     gridtolerance="10"
     guidetolerance="10"
     inkscape:pageopacity="0"
     inkscape:pageshadow="2"
     inkscape:window-width="1366"
     inkscape:window-height="719"
     id="namedview18"
     showgrid="false"
     inkscape:zoom="2.085965"
     inkscape:cx="31.773384"
     inkscape:cy="91.599697"
     inkscape:window-x="0"
     inkscape:window-y="25"
     inkscape:window-maximized="1"
     inkscape:current-layer="svg16"
     showguides="false" />
  <g
     id="g830"
     transform="scale(1.5)"
     style="stroke:#e9c6af">
    <path
       style="stroke-width:0.09375;stroke:#e9c6af"
       inkscape:connector-curvature="0"
       id="path2"
       d="M 0.75,7.5 H 12 V 9 c 0,0.30286 0.183105,0.57678 0.462891,0.69287 0.09302,0.0384 0.190429,0.0571 0.287109,0.0571 0.194824,0 0.387085,-0.0765 0.530273,-0.21973 L 15.310547,7.5 H 17.25 C 17.663818,7.5 18,7.16382 18,6.75 v -6 C 18,0.33618 17.663818,0 17.25,0 H 0.75 C 0.33618169,0 0,0.33618 0,0.75 v 6 C 0,7.16382 0.33618169,7.5 0.75,7.5 Z m 0.75,-6 h 15 V 6 H 15 C 14.801147,6 14.609985,6.0787 14.469727,6.21973 L 13.5,7.18945 V 6.75 C 13.5,6.33618 13.163818,6 12.75,6 H 1.5 Z m 0,0" />
    <path
       style="stroke-width:0.09375;stroke:#e9c6af"
       inkscape:connector-curvature="0"
       id="path4"
       d="m 29.25,6 h 3.439453 l 2.030274,2.03027 C 34.862915,8.17346 35.055176,8.25 35.25,8.25 35.34668,8.25 35.444092,8.2313 35.537109,8.1929 35.816895,8.07678 36,7.80286 36,7.5 V 6 h 3.75 C 40.163818,6 40.5,5.66382 40.5,5.25 V 0.75 C 40.5,0.33618 40.163818,0 39.75,0 H 29.25 C 28.836182,0 28.5,0.33618 28.5,0.75 v 4.5 C 28.5,5.66382 28.836182,6 29.25,6 Z M 30,1.5 h 9 v 3 H 35.25 C 34.836182,4.5 34.5,4.83618 34.5,5.25 V 5.68945 L 33.530273,4.71973 C 33.390015,4.57874 33.198853,4.5 33,4.5 h -3 z m 0,0" />
    <path
       style="stroke-width:0.09375;stroke:#e9c6af"
       inkscape:connector-curvature="0"
       id="path6"
       d="M 3.75,35.25 V 45 h 1.5 v -9.75 h 6 v 9 c 0,0.41382 0.336182,0.75 0.75,0.75 h 4.5 c 0.413818,0 0.75,-0.33618 0.75,-0.75 V 33 c 0,-0.84741 -0.293335,-1.62158 -0.769409,-2.25 H 21.75 V 43.5 h -3 V 45 h 7.5 v -1.5 h -3 V 30.75 h 5.251465 C 28.030518,31.37695 27.75,32.15625 27.75,33 v 11.25 c 0,0.41382 0.336182,0.75 0.75,0.75 H 33 c 0.413818,0 0.75,-0.33618 0.75,-0.75 v -9 h 6 V 45 h 1.5 V 35.25 C 43.317627,35.25 45,33.56763 45,31.5 V 21.75 C 45,20.09912 43.920776,18.70935 42.435791,18.21057 43.545044,17.24707 44.25,15.83093 44.25,14.25 44.25,11.3551 41.894897,9 39,9 c -2.894897,0 -5.25,2.3551 -5.25,5.25 0,1.58093 0.704956,2.99707 1.814209,3.96057 C 34.079224,18.70935 33,20.09912 33,21.75 v 3 h -6 c -0.413818,0 -0.75,0.33618 -0.75,0.75 v 3.75 H 19.041138 L 20.961914,23.48694 19.538818,23.01233 17.459106,29.25 H 10.685303 L 11.852417,24 H 15.75 c 0.198853,0 0.390015,-0.0787 0.530273,-0.21973 L 20.560547,19.5 H 21.09668 C 21.032959,19.74316 21,19.99512 21,20.25 c 0,1.65454 1.345459,3 3,3 1.654541,0 3,-1.34546 3,-3 0,-0.25488 -0.03296,-0.50684 -0.09668,-0.75 H 28.5 c 0.413818,0 0.75,-0.33618 0.75,-0.75 v -3.58484 c 0,-0.297 -0.174683,-0.56579 -0.446411,-0.68555 -0.269898,-0.11938 -0.587036,-0.0692 -0.807495,0.12964 C 27.718506,14.86121 27.36438,15 27,15 c -0.827271,0 -1.5,-0.67273 -1.5,-1.5 0,-0.82727 0.672729,-1.5 1.5,-1.5 0.36438,0 0.718506,0.13879 0.996826,0.39075 0.219727,0.19958 0.536133,0.24902 0.807495,0.12964 C 29.075317,12.40063 29.25,12.1311 29.25,11.83484 V 8.25 C 29.25,7.83618 28.913818,7.5 28.5,7.5 H 26.90332 C 26.967041,7.25684 27,7.00488 27,6.75 c 0,-1.65454 -1.345459,-3 -3,-3 -1.654541,0 -3,1.34546 -3,3 0,0.25488 0.03296,0.50684 0.09668,0.75 H 19.5 c -0.413818,0 -0.75,0.33618 -0.75,0.75 v 4.93945 L 13.939453,18 h -2.02185 C 12.892456,17.04602 13.5,15.71851 13.5,14.25 13.5,11.3551 11.144897,9 8.25,9 5.3551026,9 3,11.3551 3,14.25 3,15.86169 3.7313232,17.30383 4.8779297,18.26843 3.7034912,18.73279 2.8033448,19.7677 2.5642089,21.06592 L 1.5,26.51038 V 20.25 H 0 V 31.5 c 0,2.06763 1.682373,3.75 3.75,3.75 z m 31.5,-21 c 0,-2.06763 1.682373,-3.75 3.75,-3.75 2.067627,0 3.75,1.68237 3.75,3.75 0,2.06763 -1.682373,3.75 -3.75,3.75 -2.067627,0 -3.75,-1.68237 -3.75,-3.75 z m -7.5,12 h 6 c 0.413818,0 0.75,-0.33618 0.75,-0.75 v -3.75 c 0,-1.24036 1.009644,-2.25 2.25,-2.25 h 4.5 c 1.240356,0 2.25,1.00964 2.25,2.25 v 9.75 c 0,1.24036 -1.009644,2.25 -2.25,2.25 H 33 c -0.413818,0 -0.75,0.33618 -0.75,0.75 v 9 h -3 V 33 c 0,-1.24036 1.009644,-2.25 2.25,-2.25 h 6.75 C 38.663818,30.75 39,30.41382 39,30 v -6.75 h -1.5 v 6 H 27.75 Z M 20.25,9 h 2.084839 C 22.631836,9 22.900635,8.82532 23.020386,8.55359 23.141235,8.28296 23.090336,7.96582 22.890747,7.74609 22.638794,7.46851 22.5,7.11438 22.5,6.75 c 0,-0.82727 0.672729,-1.5 1.5,-1.5 0.827271,0 1.5,0.67273 1.5,1.5 0,0.36438 -0.138794,0.71851 -0.390747,0.99683 C 24.909668,7.96655 24.859497,8.28296 24.979614,8.55432 25.099365,8.82532 25.368164,9 25.665161,9 H 27.75 v 1.59668 C 27.506836,10.53296 27.254883,10.5 27,10.5 c -1.654541,0 -3,1.34546 -3,3 0,1.65454 1.345459,3 3,3 0.254883,0 0.506836,-0.033 0.75,-0.0967 V 18 h -2.084839 c -0.296997,0 -0.565796,0.17468 -0.685547,0.44641 -0.120849,0.27136 -0.06921,0.58777 0.129639,0.8075 C 25.361206,19.53149 25.5,19.88562 25.5,20.25 c 0,0.82727 -0.672729,1.5 -1.5,1.5 -0.827271,0 -1.5,-0.67273 -1.5,-1.5 0,-0.36438 0.138794,-0.71851 0.390747,-0.99609 0.199585,-0.21973 0.250488,-0.53614 0.129639,-0.8075 C 22.900635,18.17468 22.631836,18 22.334839,18 h -0.274292 l 0.969726,-0.96973 c 0.293335,-0.29333 0.293335,-0.76721 0,-1.06054 L 20.25,13.18945 Z M 4.5,14.25 C 4.5,12.18237 6.182373,10.5 8.25,10.5 10.317627,10.5 12,12.18237 12,14.25 12,16.31763 10.317627,18 8.25,18 6.182373,18 4.5,16.31763 4.5,14.25 Z M 2.1306152,31.10413 4.0371094,21.3457 C 4.2344971,20.27637 5.1676026,19.5 6.2548828,19.5 H 14.25 c 0.198853,0 0.390015,-0.0787 0.530273,-0.21973 L 19.5,14.56055 21.439453,16.5 l -6,6 H 11.25 c -0.351929,0 -0.65625,0.24463 -0.732056,0.5874 l -1.4999997,6.75 c -0.049438,0.22193 0.00439,0.45447 0.1472169,0.63135 C 9.3076172,30.64636 9.522583,30.75 9.75,30.75 h 3.75 c 1.240356,0 2.25,1.00964 2.25,2.25 v 10.5 h -3 v -9 c 0,-0.41382 -0.336182,-0.75 -0.75,-0.75 H 4.3425292 C 3.6749268,33.75 3.0457763,33.4552 2.6184083,32.94141 2.1884766,32.42688 2.0123291,31.75415 2.1306152,31.10413 Z m 0,0" />
    <path
       style="stroke-width:0.09375;stroke:#e9c6af"
       inkscape:connector-curvature="0"
       id="path8"
       d="M 3,3 H 6 V 4.5 H 3 Z m 0,0" />
    <path
       style="stroke-width:0.09375;stroke:#e9c6af"
       inkscape:connector-curvature="0"
       id="path10"
       d="M 7.5,3 H 9 V 4.5 H 7.5 Z m 0,0" />
    <path
       style="stroke-width:0.09375;stroke:#e9c6af"
       inkscape:connector-curvature="0"
       id="path12"
       d="M 10.5,3 H 12 v 1.5 h -1.5 z m 0,0" />
    <path
       style="stroke-width:0.09375;stroke:#e9c6af"
       inkscape:connector-curvature="0"
       id="path14"
       d="M 13.5,3 H 15 v 1.5 h -1.5 z m 0,0" />
    <path
       id="path54"
       transform="scale(0.75)"
       d="m 31.851562,7.0761719 c -0.165434,0.019026 -0.335069,0.063694 -0.507812,0.1328125 -1.263671,0.5056208 -1.625528,1.8591382 -0.810547,3.0351566 0.411027,0.593114 0.400089,1.02374 -0.03906,1.46289 l -0.34961,0.34961 h -1.568359 -1.566406 v 2.726562 2.724609 l 2.003906,2.007813 c 1.92492,1.927417 2.005859,2.025672 2.005859,2.486328 0,0.424294 -0.08193,0.561725 -0.701172,1.1875 l -0.699218,0.707031 0.371093,0.08203 c 0.448599,0.09853 0.853516,0.577657 0.853516,1.009765 0,0.17356 -0.142404,0.525183 -0.316406,0.78125 -0.174001,0.256066 -0.357703,0.649149 -0.408203,0.873047 -0.18422,0.816811 0.330228,1.779107 1.144531,2.142578 1.271869,0.56771 2.828445,-0.593555 2.646484,-1.974609 -0.03815,-0.28957 -0.231967,-0.769858 -0.429687,-1.068359 -0.412195,-0.622303 -0.428561,-0.739823 -0.173828,-1.232422 0.259416,-0.501653 0.585249,-0.587891 2.21875,-0.587891 h 1.43164 V 22.962891 22.003906 H 36.0625 c -1.177214,0 -2.022015,-0.317584 -2.806641,-1.054687 -0.877986,-0.824806 -1.265771,-1.732907 -1.263671,-2.958985 0.0028,-1.584898 0.720736,-2.794317 2.107421,-3.542968 0.697895,-0.376781 0.844909,-0.408557 1.808594,-0.410157 l 1.046875,-0.002 0.002,-0.990234 v -0.988281 h -1.552734 c -1.459368,0 -1.570167,-0.01596 -1.880859,-0.283203 -0.444144,-0.38206 -0.444962,-0.966209 -0.002,-1.605469 C 34.15647,9.2516373 34.057285,8.3150351 33.248048,7.5839374 32.810741,7.1889051 32.347865,7.0190926 31.851562,7.0761719 Z"
       style="fill:#008080;stroke:#e9c6af;stroke-width:0.11984861"
       inkscape:connector-curvature="0" />
  </g>
  <path
     style="fill:#e9c6af;fill-opacity:1;stroke:#e9c6af;stroke-width:0.33898306;stroke-opacity:1"
     d="M 14.741356,35.586195 C 10.570699,34.54845 8.152602,29.764922 9.8023028,25.815661 11.885154,20.82947 18.661204,19.74332 22.048493,23.852689 c 2.380213,2.887611 2.343506,6.640844 -0.09131,9.335889 -1.903004,2.106398 -4.679085,3.028812 -7.215831,2.397617 z"
     id="path851"
     inkscape:connector-curvature="0"
     transform="scale(0.75)" />
  <path
     style="fill:#e9c6af;fill-opacity:1;stroke:#e9c6af;stroke-width:0.33898306;stroke-opacity:1"
     d="m 75.983709,35.519362 c -3.131875,-0.864359 -5.705318,-4.719642 -5.211558,-7.807451 0.625421,-3.911167 3.442006,-6.376888 7.284299,-6.376888 2.155062,0 3.070032,0.361039 4.741191,1.870831 3.600759,3.253069 3.063721,9.084942 -1.056577,11.473709 -1.70754,0.989956 -4.001092,1.324506 -5.757355,0.839799 z"
     id="path853"
     inkscape:connector-curvature="0"
     transform="scale(0.75)" />
  <path
     style="fill:#b7c4c8;fill-opacity:1;stroke:#165044;stroke-width:0.23969722;stroke-opacity:1"
     d="M 25.565091,77.453467 V 68.118869 L 25.032363,67.74573 c -0.457031,-0.320116 -1.701301,-0.373137 -8.756647,-0.373137 -6.880614,0 -8.3689484,-0.0606 -9.1118132,-0.370986 -1.7852984,-0.745945 -2.6928068,-2.051612 -2.6910657,-3.871736 9.047e-4,-0.945787 3.5363085,-19.823719 3.9752181,-21.2264 0.2086962,-0.666957 1.2859228,-1.83624 2.1045878,-2.284439 0.659139,-0.360863 1.851382,-0.425446 9.797236,-0.53071 l 9.046772,-0.119848 4.793858,-4.789816 4.793861,-4.789816 1.801737,1.789712 1.801736,1.789712 -5.932834,5.936394 -5.932832,5.936395 H 26.37246 c -3.785469,0 -4.416909,0.05441 -4.867685,0.41947 -0.425883,0.344898 -0.792814,1.653288 -2.06398,7.359674 -0.850308,3.817113 -1.546014,7.167238 -1.546014,7.444724 0,0.277488 0.152825,0.7139 0.339612,0.969805 0.311607,0.426913 0.743038,0.475166 5.231668,0.585132 4.813556,0.117927 4.907644,0.130173 5.863478,0.763201 0.584537,0.387128 1.173909,1.061641 1.479852,1.693633 0.495116,1.022772 0.508434,1.333987 0.508434,11.880828 v 10.830546 h -2.876367 -2.876367 z"
     id="path865"
     inkscape:connector-curvature="0"
     transform="scale(0.75)" />
  <path
     style="fill:#784421;fill-opacity:1;stroke:#784421;stroke-width:0.33898306;stroke-opacity:1"
     d="m 75.834495,35.625462 c -1.442037,-0.382991 -4.168862,-2.840451 -4.625433,-4.168516 -0.0641,-0.186441 -0.264714,-0.720339 -0.445819,-1.186441 -0.941542,-2.423204 0.750525,-6.494702 3.326503,-8.004326 1.777773,-1.041844 5.052536,-1.356204 6.745016,-0.647486 1.114793,0.466815 3.220339,2.357715 3.220339,2.892049 0,0.184819 0.177966,0.336034 0.39548,0.336034 0.217514,0 0.299152,0.09633 0.181418,0.214062 -0.117734,0.117735 -0.04702,0.526184 0.157144,0.907666 0.204163,0.381483 0.439295,1.418942 0.522516,2.305466 0.296917,3.16297 -1.949094,6.304246 -5.178859,7.243164 -1.989955,0.578496 -2.481397,0.590881 -4.298305,0.108328 z"
     id="path871"
     inkscape:connector-curvature="0"
     transform="scale(0.75)" />
</svg>
