<?xml version="1.0" encoding="UTF-8" standalone="no"?>
<svg
   xmlns:dc="http://purl.org/dc/elements/1.1/"
   xmlns:cc="http://creativecommons.org/ns#"
   xmlns:rdf="http://www.w3.org/1999/02/22-rdf-syntax-ns#"
   xmlns:svg="http://www.w3.org/2000/svg"
   xmlns="http://www.w3.org/2000/svg"
   xmlns:sodipodi="http://sodipodi.sourceforge.net/DTD/sodipodi-0.dtd"
   xmlns:inkscape="http://www.inkscape.org/namespaces/inkscape"
   height="45pt"
   viewBox="0 0 45 45"
   width="45pt"
   version="1.1"
   id="svg16"
   sodipodi:docname="meeting_puzzle_tiny.svg"
   inkscape:version="0.92.3 (2405546, 2018-03-11)">
  <metadata
     id="metadata22">
    <rdf:RDF>
      <cc:Work
         rdf:about="">
        <dc:format>image/svg+xml</dc:format>
        <dc:type
           rdf:resource="http://purl.org/dc/dcmitype/StillImage" />
      </cc:Work>
    </rdf:RDF>
  </metadata>
  <defs
     id="defs20" />
  <sodipodi:namedview
     pagecolor="#ffffff"
     bordercolor="#666666"
     borderopacity="1"
     objecttolerance="10"
     gridtolerance="10"
     guidetolerance="10"
     inkscape:pageopacity="0"
     inkscape:pageshadow="2"
     inkscape:window-width="1366"
     inkscape:window-height="719"
     id="namedview18"
     showgrid="false"
     inkscape:zoom="2.95"
     inkscape:cx="35.174151"
     inkscape:cy="25.342943"
     inkscape:window-x="0"
     inkscape:window-y="25"
     inkscape:window-maximized="1"
     inkscape:current-layer="svg16" />
  <path
     d="M 0.75,7.5 H 12 V 9 c 0,0.30286 0.183105,0.57678 0.462891,0.69287 0.09302,0.0384 0.190429,0.0571 0.287109,0.0571 0.194824,0 0.387085,-0.0765 0.530273,-0.21973 L 15.310547,7.5 H 17.25 C 17.663818,7.5 18,7.16382 18,6.75 v -6 C 18,0.33618 17.663818,0 17.25,0 H 0.75 C 0.33618169,0 0,0.33618 0,0.75 v 6 C 0,7.16382 0.33618169,7.5 0.75,7.5 Z m 0.75,-6 h 15 V 6 H 15 C 14.801147,6 14.609985,6.0787 14.469727,6.21973 L 13.5,7.18945 V 6.75 C 13.5,6.33618 13.163818,6 12.75,6 H 1.5 Z m 0,0"
     id="path2"
     inkscape:connector-curvature="0"
     style="stroke-width:0.09375" />
  <path
     d="m 29.25,6 h 3.439453 l 2.030274,2.03027 C 34.862915,8.17346 35.055176,8.25 35.25,8.25 35.34668,8.25 35.444092,8.2313 35.537109,8.1929 35.816895,8.07678 36,7.80286 36,7.5 V 6 h 3.75 C 40.163818,6 40.5,5.66382 40.5,5.25 V 0.75 C 40.5,0.33618 40.163818,0 39.75,0 H 29.25 C 28.836182,0 28.5,0.33618 28.5,0.75 v 4.5 C 28.5,5.66382 28.836182,6 29.25,6 Z M 30,1.5 h 9 v 3 H 35.25 C 34.836182,4.5 34.5,4.83618 34.5,5.25 V 5.68945 L 33.530273,4.71973 C 33.390015,4.57874 33.198853,4.5 33,4.5 h -3 z m 0,0"
     id="path4"
     inkscape:connector-curvature="0"
     style="stroke-width:0.09375" />
  <path
     d="M 3.75,35.25 V 45 h 1.5 v -9.75 h 6 v 9 c 0,0.41382 0.336182,0.75 0.75,0.75 h 4.5 c 0.413818,0 0.75,-0.33618 0.75,-0.75 V 33 c 0,-0.84741 -0.293335,-1.62158 -0.769409,-2.25 H 21.75 V 43.5 h -3 V 45 h 7.5 v -1.5 h -3 V 30.75 h 5.251465 C 28.030518,31.37695 27.75,32.15625 27.75,33 v 11.25 c 0,0.41382 0.336182,0.75 0.75,0.75 H 33 c 0.413818,0 0.75,-0.33618 0.75,-0.75 v -9 h 6 V 45 h 1.5 V 35.25 C 43.317627,35.25 45,33.56763 45,31.5 V 21.75 C 45,20.09912 43.920776,18.70935 42.435791,18.21057 43.545044,17.24707 44.25,15.83093 44.25,14.25 44.25,11.3551 41.894897,9 39,9 c -2.894897,0 -5.25,2.3551 -5.25,5.25 0,1.58093 0.704956,2.99707 1.814209,3.96057 C 34.079224,18.70935 33,20.09912 33,21.75 v 3 h -6 c -0.413818,0 -0.75,0.33618 -0.75,0.75 v 3.75 H 19.041138 L 20.961914,23.48694 19.538818,23.01233 17.459106,29.25 H 10.685303 L 11.852417,24 H 15.75 c 0.198853,0 0.390015,-0.0787 0.530273,-0.21973 L 20.560547,19.5 H 21.09668 C 21.032959,19.74316 21,19.99512 21,20.25 c 0,1.65454 1.345459,3 3,3 1.654541,0 3,-1.34546 3,-3 0,-0.25488 -0.03296,-0.50684 -0.09668,-0.75 H 28.5 c 0.413818,0 0.75,-0.33618 0.75,-0.75 v -3.58484 c 0,-0.297 -0.174683,-0.56579 -0.446411,-0.68555 -0.269898,-0.11938 -0.587036,-0.0692 -0.807495,0.12964 C 27.718506,14.86121 27.36438,15 27,15 c -0.827271,0 -1.5,-0.67273 -1.5,-1.5 0,-0.82727 0.672729,-1.5 1.5,-1.5 0.36438,0 0.718506,0.13879 0.996826,0.39075 0.219727,0.19958 0.536133,0.24902 0.807495,0.12964 C 29.075317,12.40063 29.25,12.1311 29.25,11.83484 V 8.25 C 29.25,7.83618 28.913818,7.5 28.5,7.5 H 26.90332 C 26.967041,7.25684 27,7.00488 27,6.75 c 0,-1.65454 -1.345459,-3 -3,-3 -1.654541,0 -3,1.34546 -3,3 0,0.25488 0.03296,0.50684 0.09668,0.75 H 19.5 c -0.413818,0 -0.75,0.33618 -0.75,0.75 v 4.93945 L 13.939453,18 h -2.02185 C 12.892456,17.04602 13.5,15.71851 13.5,14.25 13.5,11.3551 11.144897,9 8.25,9 5.3551026,9 3,11.3551 3,14.25 3,15.86169 3.7313232,17.30383 4.8779297,18.26843 3.7034912,18.73279 2.8033448,19.7677 2.5642089,21.06592 L 1.5,26.51038 V 20.25 H 0 V 31.5 c 0,2.06763 1.682373,3.75 3.75,3.75 z m 31.5,-21 c 0,-2.06763 1.682373,-3.75 3.75,-3.75 2.067627,0 3.75,1.68237 3.75,3.75 0,2.06763 -1.682373,3.75 -3.75,3.75 -2.067627,0 -3.75,-1.68237 -3.75,-3.75 z m -7.5,12 h 6 c 0.413818,0 0.75,-0.33618 0.75,-0.75 v -3.75 c 0,-1.24036 1.009644,-2.25 2.25,-2.25 h 4.5 c 1.240356,0 2.25,1.00964 2.25,2.25 v 9.75 c 0,1.24036 -1.009644,2.25 -2.25,2.25 H 33 c -0.413818,0 -0.75,0.33618 -0.75,0.75 v 9 h -3 V 33 c 0,-1.24036 1.009644,-2.25 2.25,-2.25 h 6.75 C 38.663818,30.75 39,30.41382 39,30 v -6.75 h -1.5 v 6 H 27.75 Z M 20.25,9 h 2.084839 C 22.631836,9 22.900635,8.82532 23.020386,8.55359 23.141235,8.28296 23.090336,7.96582 22.890747,7.74609 22.638794,7.46851 22.5,7.11438 22.5,6.75 c 0,-0.82727 0.672729,-1.5 1.5,-1.5 0.827271,0 1.5,0.67273 1.5,1.5 0,0.36438 -0.138794,0.71851 -0.390747,0.99683 C 24.909668,7.96655 24.859497,8.28296 24.979614,8.55432 25.099365,8.82532 25.368164,9 25.665161,9 H 27.75 v 1.59668 C 27.506836,10.53296 27.254883,10.5 27,10.5 c -1.654541,0 -3,1.34546 -3,3 0,1.65454 1.345459,3 3,3 0.254883,0 0.506836,-0.033 0.75,-0.0967 V 18 h -2.084839 c -0.296997,0 -0.565796,0.17468 -0.685547,0.44641 -0.120849,0.27136 -0.06921,0.58777 0.129639,0.8075 C 25.361206,19.53149 25.5,19.88562 25.5,20.25 c 0,0.82727 -0.672729,1.5 -1.5,1.5 -0.827271,0 -1.5,-0.67273 -1.5,-1.5 0,-0.36438 0.138794,-0.71851 0.390747,-0.99609 0.199585,-0.21973 0.250488,-0.53614 0.129639,-0.8075 C 22.900635,18.17468 22.631836,18 22.334839,18 h -0.274292 l 0.969726,-0.96973 c 0.293335,-0.29333 0.293335,-0.76721 0,-1.06054 L 20.25,13.18945 Z M 4.5,14.25 C 4.5,12.18237 6.182373,10.5 8.25,10.5 10.317627,10.5 12,12.18237 12,14.25 12,16.31763 10.317627,18 8.25,18 6.182373,18 4.5,16.31763 4.5,14.25 Z M 2.1306152,31.10413 4.0371094,21.3457 C 4.2344971,20.27637 5.1676026,19.5 6.2548828,19.5 H 14.25 c 0.198853,0 0.390015,-0.0787 0.530273,-0.21973 L 19.5,14.56055 21.439453,16.5 l -6,6 H 11.25 c -0.351929,0 -0.65625,0.24463 -0.732056,0.5874 l -1.4999997,6.75 c -0.049438,0.22193 0.00439,0.45447 0.1472169,0.63135 C 9.3076172,30.64636 9.522583,30.75 9.75,30.75 h 3.75 c 1.240356,0 2.25,1.00964 2.25,2.25 v 10.5 h -3 v -9 c 0,-0.41382 -0.336182,-0.75 -0.75,-0.75 H 4.3425292 C 3.6749268,33.75 3.0457763,33.4552 2.6184083,32.94141 2.1884766,32.42688 2.0123291,31.75415 2.1306152,31.10413 Z m 0,0"
     id="path6"
     inkscape:connector-curvature="0"
     style="stroke-width:0.09375" />
  <path
     d="M 3,3 H 6 V 4.5 H 3 Z m 0,0"
     id="path8"
     inkscape:connector-curvature="0"
     style="stroke-width:0.09375" />
  <path
     d="M 7.5,3 H 9 V 4.5 H 7.5 Z m 0,0"
     id="path10"
     inkscape:connector-curvature="0"
     style="stroke-width:0.09375" />
  <path
     d="M 10.5,3 H 12 v 1.5 h -1.5 z m 0,0"
     id="path12"
     inkscape:connector-curvature="0"
     style="stroke-width:0.09375" />
  <path
     d="M 13.5,3 H 15 v 1.5 h -1.5 z m 0,0"
     id="path14"
     inkscape:connector-curvature="0"
     style="stroke-width:0.09375" />
  <path
     style="fill:#008080;stroke:#008080;stroke-width:0.11984861"
     d="M 31.851562 7.0761719 C 31.686128 7.0951983 31.516493 7.1398662 31.34375 7.2089844 C 30.080079 7.7146052 29.718222 9.0681226 30.533203 10.244141 C 30.94423 10.837255 30.933292 11.267881 30.494141 11.707031 L 30.144531 12.056641 L 28.576172 12.056641 L 27.009766 12.056641 L 27.009766 14.783203 L 27.009766 17.507812 L 29.013672 19.515625 C 30.938592 21.443042 31.019531 21.541297 31.019531 22.001953 C 31.019531 22.426247 30.937603 22.563678 30.318359 23.189453 L 29.619141 23.896484 L 29.990234 23.978516 C 30.438833 24.077044 30.84375 24.556173 30.84375 24.988281 C 30.84375 25.161841 30.701346 25.513464 30.527344 25.769531 C 30.353343 26.025597 30.169641 26.41868 30.119141 26.642578 C 29.934921 27.459389 30.449369 28.421685 31.263672 28.785156 C 32.535541 29.352866 34.092117 28.191601 33.910156 26.810547 C 33.872004 26.520977 33.678189 26.040689 33.480469 25.742188 C 33.068274 25.119885 33.051908 25.002365 33.306641 24.509766 C 33.566057 24.008113 33.89189 23.921875 35.525391 23.921875 L 36.957031 23.921875 L 36.957031 22.962891 L 36.957031 22.003906 L 36.0625 22.003906 C 34.885286 22.003906 34.040485 21.686322 33.255859 20.949219 C 32.377873 20.124413 31.990088 19.216312 31.992188 17.990234 C 31.994964 16.405336 32.712924 15.195917 34.099609 14.447266 C 34.797504 14.070485 34.944518 14.038709 35.908203 14.037109 L 36.955078 14.035156 L 36.957031 13.044922 L 36.957031 12.056641 L 35.404297 12.056641 C 33.944929 12.056641 33.83413 12.040684 33.523438 11.773438 C 33.079294 11.391378 33.078476 10.807229 33.521484 10.167969 C 34.156469 9.2516843 34.057284 8.3150821 33.248047 7.5839844 C 32.810741 7.1889051 32.347865 7.0190926 31.851562 7.0761719 z "
     transform="scale(0.75)"
     id="path54" />
</svg>
